<svg id="visual" viewBox="0 0 1920 1080" width="1920" height="1080" xmlns="http://www.w3.org/2000/svg" xmlns:xlink="http://www.w3.org/1999/xlink" version="1.1"><rect x="0" y="0" width="1920" height="1080" fill="#0A080D"></rect><path d="M0 556L137 385L274 585L411 447L549 425L686 590L823 418L960 590L1097 501L1234 368L1371 522L1509 486L1646 582L1783 636L1920 528L1920 1081L1783 1081L1646 1081L1509 1081L1371 1081L1234 1081L1097 1081L960 1081L823 1081L686 1081L549 1081L411 1081L274 1081L137 1081L0 1081Z" fill="#100825"></path><path d="M0 426L137 571L274 484L411 551L549 568L686 609L823 674L960 597L1097 467L1234 604L1371 484L1509 694L1646 635L1783 514L1920 690L1920 1081L1783 1081L1646 1081L1509 1081L1371 1081L1234 1081L1097 1081L960 1081L823 1081L686 1081L549 1081L411 1081L274 1081L137 1081L0 1081Z" fill="#120c2b"></path><path d="M0 631L137 762L274 690L411 527L549 592L686 530L823 523L960 705L1097 650L1234 518L1371 732L1509 755L1646 572L1783 641L1920 564L1920 1081L1783 1081L1646 1081L1509 1081L1371 1081L1234 1081L1097 1081L960 1081L823 1081L686 1081L549 1081L411 1081L274 1081L137 1081L0 1081Z" fill="#151031"></path><path d="M0 820L137 812L274 721L411 799L549 678L686 670L823 662L960 633L1097 779L1234 758L1371 689L1509 644L1646 736L1783 674L1920 711L1920 1081L1783 1081L1646 1081L1509 1081L1371 1081L1234 1081L1097 1081L960 1081L823 1081L686 1081L549 1081L411 1081L274 1081L137 1081L0 1081Z" fill="#181237"></path><path d="M0 761L137 903L274 782L411 820L549 766L686 796L823 797L960 896L1097 843L1234 844L1371 724L1509 871L1646 837L1783 735L1920 877L1920 1081L1783 1081L1646 1081L1509 1081L1371 1081L1234 1081L1097 1081L960 1081L823 1081L686 1081L549 1081L411 1081L274 1081L137 1081L0 1081Z" fill="#1c143d"></path><path d="M0 909L137 902L274 898L411 817L549 894L686 948L823 921L960 880L1097 914L1234 912L1371 886L1509 912L1646 882L1783 942L1920 889L1920 1081L1783 1081L1646 1081L1509 1081L1371 1081L1234 1081L1097 1081L960 1081L823 1081L686 1081L549 1081L411 1081L274 1081L137 1081L0 1081Z" fill="#201543"></path><path d="M0 950L137 995L274 1022L411 916L549 973L686 943L823 924L960 1020L1097 994L1234 927L1371 934L1509 931L1646 989L1783 966L1920 983L1920 1081L1783 1081L1646 1081L1509 1081L1371 1081L1234 1081L1097 1081L960 1081L823 1081L686 1081L549 1081L411 1081L274 1081L137 1081L0 1081Z" fill="#251749"></path></svg>